{"title":"Mannys Orphans","uid":7446385,"size":512512000,"categoryP":"video","categoryS":"movies","magnet":"?xt=urn:btih:190acb3c7b37f141f7e9d409a7b7266b21328cb2&amp;dn=Mannys+Orphans&amp;tr=udp%3A%2F%2Ftracker.openbittorrent.com%3A80&amp;tr=udp%3A%2F%2Fopen.demonii.com%3A1337&amp;tr=udp%3A%2F%2Ftracker.coppersurfer.tk%3A6969&amp;tr=udp%3A%2F%2Fexodus.desync.com%3A6969","seeders":0,"leechers":1,"uploader":"doobsie101","files":1,"time":1342380663,"description":"Another that is not my capture.\n\nGeneral\nComplete name                            : C:MediaFilms And MoviesFilmsMannys OrphansMannys Orphans.avi\nFormat                                   : AVI\nFormat/Info                              : Audio Video Interleave\nFile size                                : 489 MiB\nDuration                                 : 1h 31mn\nOverall bit rate                         : 747 Kbps\nWriting application                      : VirtualDubMod 1.5.4.1 (build 2178/release)\nWriting library                          : VirtualDubMod build 2178/release\n\nVideo\nID                                       : 0\nFormat                                   : MPEG-4 Visual\nFormat profile                           : Advanced Simple@L5\nFormat settings, BVOP                    : 1\nFormat settings, QPel                    : No\nFormat settings, GMC                     : No warppoints\nFormat settings, Matrix                  : Custom\nCodec ID                                 : XVID\nCodec ID/Hint                            : XviD\nDuration                                 : 1h 31mn\nBit rate                                 : 452 Kbps\nWidth                                    : 480 pixels\nHeight                                   : 368 pixels\nDisplay aspect ratio                     : 4:3\nFrame rate                               : 23.976 fps\nColor space                              : YUV\nChroma subsampling                       : 4:2:0\nBit depth                                : 8 bits\nScan type                                : Progressive\nCompression mode                         : Lossy\nBits/(Pixel*Frame)                       : 0.107\nStream size                              : 296 MiB (61%)\nWriting library                          : XviD 1.1.2 (UTC 2006-11-01)\n\nAudio\nID                                       : 1\nFormat                                   : AC-3\nFormat/Info                              : Audio Coding 3\nMode extension                           : CM (complete main)\nFormat settings, Endianness              : Big\nCodec ID                                 : 2000\nDuration                                 : 1h 31mn\nBit rate mode                            : Constant\nBit rate                                 : 256 Kbps\nChannel(s)                               : 2 channels\nChannel positions                        : Front: L R\nSampling rate                            : 48.0 KHz\nBit depth                                : 16 bits\nCompression mode                         : Lossy\nDelay relative to video                  : 20ms\nStream size                              : 168 MiB (34%)\nAlignment                                : Split accross interleaves\nLanguage                                 : English\n\n","torrent":{"xt":"urn:btih:190acb3c7b37f141f7e9d409a7b7266b21328cb2","amp;dn":"Mannys+Orphans","amp;tr":["udp%3A%2F%2Ftracker.openbittorrent.com%3A80","udp%3A%2F%2Fopen.demonii.com%3A1337","udp%3A%2F%2Ftracker.coppersurfer.tk%3A6969","udp%3A%2F%2Fexodus.desync.com%3A6969"],"infoHash":"190acb3c7b37f141f7e9d409a7b7266b21328cb2","infoHashBuffer":{"type":"Buffer","data":[25,10,203,60,123,55,241,65,247,233,212,9,167,183,38,107,33,50,140,178]},"announce":[],"urlList":[]}}